<svg width="103" height="25" viewBox="0 0 103 25" fill="none" xmlns="http://www.w3.org/2000/svg">
<path d="M12 4.99999C12.0012 4.60002 11.9224 4.20385 11.7682 3.83479C11.614 3.46572 11.3876 3.13122 11.1023 2.85093C10.8169 2.57065 10.4784 2.35026 10.1067 2.20272C9.73491 2.05518 9.33739 1.98347 8.93751 1.9918C8.53762 2.00014 8.14344 2.08835 7.77815 2.25126C7.41286 2.41416 7.08383 2.64847 6.81041 2.94039C6.537 3.23232 6.32472 3.57597 6.18606 3.95114C6.04741 4.32631 5.98517 4.72542 6.00301 5.12499C5.41521 5.27613 4.86952 5.55904 4.40724 5.9523C3.94497 6.34556 3.57825 6.83886 3.33486 7.39484C3.09146 7.95081 2.97777 8.55488 3.0024 9.1613C3.02703 9.76772 3.18933 10.3606 3.47701 10.895C2.97119 11.3059 2.57344 11.8342 2.31835 12.4339C2.06327 13.0336 1.95857 13.6866 2.01338 14.336C2.06818 14.9854 2.28083 15.6115 2.63282 16.16C2.98481 16.7085 3.46548 17.1626 4.03301 17.483C3.96293 18.0252 4.00475 18.5761 4.1559 19.1015C4.30705 19.627 4.56431 20.1158 4.9118 20.5379C5.25929 20.9601 5.68962 21.3065 6.17623 21.5557C6.66284 21.805 7.19539 21.9519 7.74099 21.9873C8.28659 22.0227 8.83365 21.9459 9.3484 21.7616C9.86315 21.5773 10.3346 21.2894 10.7338 20.9157C11.1329 20.5421 11.4512 20.0906 11.669 19.5891C11.8868 19.0876 11.9994 18.5467 12 18V4.99999Z" stroke="#7A41F8" stroke-width="2" stroke-linecap="round" stroke-linejoin="round"/>
<path d="M12 4.99999C11.9988 4.60002 12.0776 4.20385 12.2318 3.83479C12.386 3.46572 12.6124 3.13122 12.8977 2.85093C13.1831 2.57065 13.5216 2.35026 13.8934 2.20272C14.2651 2.05518 14.6626 1.98347 15.0625 1.9918C15.4624 2.00014 15.8566 2.08835 16.2219 2.25126C16.5872 2.41416 16.9162 2.64847 17.1896 2.94039C17.463 3.23232 17.6753 3.57597 17.814 3.95114C17.9526 4.32631 18.0149 4.72542 17.997 5.12499C18.5848 5.27613 19.1305 5.55904 19.5928 5.9523C20.0551 6.34556 20.4218 6.83886 20.6652 7.39484C20.9086 7.95081 21.0223 8.55488 20.9976 9.1613C20.973 9.76772 20.8107 10.3606 20.523 10.895C21.0288 11.3059 21.4266 11.8342 21.6817 12.4339C21.9368 13.0336 22.0415 13.6866 21.9867 14.336C21.9318 14.9854 21.7192 15.6115 21.3672 16.16C21.0152 16.7085 20.5345 17.1626 19.967 17.483C20.0371 18.0252 19.9953 18.5761 19.8441 19.1015C19.693 19.627 19.4357 20.1158 19.0882 20.5379C18.7407 20.9601 18.3104 21.3065 17.8238 21.5557C17.3372 21.805 16.8046 21.9519 16.259 21.9873C15.7134 22.0227 15.1664 21.9459 14.6516 21.7616C14.1369 21.5773 13.6654 21.2894 13.2663 20.9157C12.8671 20.5421 12.5488 20.0906 12.331 19.5891C12.1133 19.0876 12.0006 18.5467 12 18V4.99999Z" stroke="#7A41F8" stroke-width="2" stroke-linecap="round" stroke-linejoin="round"/>
<path d="M15 13C14.1604 12.7047 13.4273 12.167 12.8933 11.455C12.3593 10.743 12.0485 9.88867 12 9C11.9515 9.88867 11.6407 10.743 11.1067 11.455C10.5727 12.167 9.83956 12.7047 9 13" stroke="#7A41F8" stroke-width="2" stroke-linecap="round" stroke-linejoin="round"/>
<path d="M17.599 6.5C17.841 6.08059 17.9779 5.60882 17.998 5.125" stroke="#7A41F8" stroke-width="2" stroke-linecap="round" stroke-linejoin="round"/>
<path d="M6.00299 5.125C6.02277 5.60873 6.15932 6.0805 6.40099 6.5" stroke="#7A41F8" stroke-width="2" stroke-linecap="round" stroke-linejoin="round"/>
<path d="M3.47699 10.896C3.65993 10.747 3.85569 10.6145 4.06199 10.5" stroke="#7A41F8" stroke-width="2" stroke-linecap="round" stroke-linejoin="round"/>
<path d="M19.938 10.5C20.1443 10.6145 20.34 10.747 20.523 10.896" stroke="#7A41F8" stroke-width="2" stroke-linecap="round" stroke-linejoin="round"/>
<path d="M6.00002 18C5.31085 18.0003 4.63329 17.8226 4.03302 17.484" stroke="#7A41F8" stroke-width="2" stroke-linecap="round" stroke-linejoin="round"/>
<path d="M19.967 17.484C19.3667 17.8226 18.6892 18.0003 18 18" stroke="#7A41F8" stroke-width="2" stroke-linecap="round" stroke-linejoin="round"/>
<path d="M27.2895 20V6.73683H32.8895C33.0184 6.73683 33.1904 6.74297 33.4053 6.75525C33.6263 6.76139 33.8228 6.77981 33.9948 6.81051C34.7869 6.93332 35.4347 7.19428 35.9382 7.5934C36.4478 7.99253 36.8224 8.49604 37.0619 9.10393C37.3013 9.70569 37.4211 10.3781 37.4211 11.121C37.4211 11.864 37.2983 12.5395 37.0526 13.1474C36.8132 13.7491 36.4386 14.2495 35.929 14.6487C35.4255 15.0478 34.7807 15.3088 33.9948 15.4316C33.8228 15.4561 33.6263 15.4745 33.4053 15.4868C33.1842 15.4991 33.0123 15.5052 32.8895 15.5052H29.7948V20H27.2895ZM29.7948 13.1658H32.779C32.9079 13.1658 33.0491 13.1596 33.2026 13.1474C33.3562 13.1351 33.4974 13.1105 33.6263 13.0737C33.9641 12.9816 34.225 12.8281 34.4092 12.6131C34.5934 12.3921 34.7193 12.1495 34.7869 11.8855C34.8605 11.6153 34.8974 11.3605 34.8974 11.121C34.8974 10.8816 34.8605 10.6298 34.7869 10.3658C34.7193 10.0956 34.5934 9.85305 34.4092 9.63814C34.225 9.41709 33.9641 9.26051 33.6263 9.16841C33.4974 9.13156 33.3562 9.107 33.2026 9.09472C33.0491 9.08244 32.9079 9.0763 32.779 9.0763H29.7948V13.1658Z" fill="#4E6586"/>
<path d="M41.6835 20.2763C40.4309 20.2763 39.4177 19.9938 38.6441 19.4289C37.8765 18.8579 37.4098 18.0535 37.2441 17.0158L39.8046 16.6289C39.909 17.0956 40.1392 17.4609 40.4954 17.725C40.8577 17.989 41.3151 18.121 41.8677 18.121C42.3221 18.121 42.6721 18.0351 42.9177 17.8631C43.1634 17.6851 43.2862 17.4395 43.2862 17.1263C43.2862 16.9298 43.237 16.7732 43.1388 16.6566C43.0405 16.5338 42.8195 16.414 42.4756 16.2974C42.1379 16.1807 41.6098 16.0272 40.8914 15.8368C40.0809 15.6281 39.4331 15.3947 38.948 15.1368C38.4629 14.8789 38.1129 14.5719 37.898 14.2158C37.6831 13.8535 37.5756 13.4175 37.5756 12.9079C37.5756 12.2693 37.7384 11.7167 38.0638 11.25C38.3892 10.7772 38.8467 10.4149 39.4362 10.1631C40.0318 9.90525 40.7318 9.7763 41.5362 9.7763C42.316 9.7763 43.0068 9.89604 43.6085 10.1355C44.2103 10.375 44.6954 10.7158 45.0638 11.1579C45.4384 11.6 45.6686 12.1219 45.7546 12.7237L43.1941 13.1842C43.1511 12.8158 42.9914 12.5241 42.7151 12.3092C42.4388 12.0943 42.0642 11.9684 41.5914 11.9316C41.1309 11.9009 40.7594 11.9623 40.4769 12.1158C40.2006 12.2693 40.0625 12.4903 40.0625 12.7789C40.0625 12.9509 40.1208 13.0952 40.2375 13.2118C40.3603 13.3285 40.609 13.4482 40.9835 13.571C41.3642 13.6938 41.9414 13.8535 42.7151 14.05C43.4704 14.2465 44.0752 14.4767 44.5296 14.7408C44.9901 14.9987 45.3248 15.3118 45.5335 15.6802C45.7423 16.0425 45.8467 16.4816 45.8467 16.9974C45.8467 18.0167 45.4783 18.818 44.7414 19.4013C44.0046 19.9846 42.9853 20.2763 41.6835 20.2763Z" fill="#4E6586"/>
<path d="M46.5812 8.67104V6.46051H49.0865V8.67104H46.5812ZM46.5812 20V10.0526H49.0865V20H46.5812Z" fill="#4E6586"/>
<path d="M52.5882 20V6.73683H57.5895C57.7185 6.73683 57.8566 6.74297 58.004 6.75525C58.1575 6.76139 58.3172 6.77981 58.483 6.81051C59.1461 6.9149 59.7141 7.15437 60.1869 7.52893C60.6658 7.89735 61.0312 8.36402 61.283 8.92893C61.5347 9.4877 61.6606 10.1048 61.6606 10.7802C61.6606 11.4618 61.5347 12.0851 61.283 12.65C61.0312 13.2088 60.6658 13.6754 60.1869 14.05C59.7141 14.4184 59.1461 14.6548 58.483 14.7592C58.3172 14.7838 58.1575 14.8022 58.004 14.8145C57.8566 14.8267 57.7185 14.8329 57.5895 14.8329H53.6474V20H52.5882ZM53.6474 13.7921H57.5711C57.6816 13.7921 57.8075 13.7859 57.9487 13.7737C58.0961 13.7614 58.2435 13.743 58.3908 13.7184C58.8698 13.6202 59.2689 13.4267 59.5882 13.1381C59.9075 12.8434 60.147 12.4903 60.3066 12.0789C60.4663 11.6675 60.5461 11.2346 60.5461 10.7802C60.5461 10.3259 60.4663 9.89604 60.3066 9.49077C60.147 9.07937 59.9075 8.72937 59.5882 8.44077C59.2689 8.14604 58.8698 7.94955 58.3908 7.8513C58.2435 7.8206 58.0961 7.79911 57.9487 7.78683C57.8075 7.77454 57.6816 7.7684 57.5711 7.7684H53.6474V13.7921Z" fill="#4E6586"/>
<path d="M62.2183 20V6.46051H63.2775V20H62.2183Z" fill="#4E6586"/>
<path d="M67.4457 20.2763C66.6781 20.2763 66.0395 20.1412 65.5299 19.871C65.0264 19.6009 64.6487 19.2447 64.397 18.8026C64.1452 18.3544 64.0193 17.8693 64.0193 17.3474C64.0193 16.7824 64.136 16.3096 64.3693 15.9289C64.6088 15.5482 64.925 15.2412 65.318 15.0079C65.7172 14.7745 66.1562 14.5995 66.6351 14.4829C67.1816 14.3601 67.7711 14.2557 68.4036 14.1697C69.036 14.0776 69.6378 13.9978 70.2088 13.9302C70.786 13.8627 71.2557 13.8044 71.618 13.7552L71.2312 13.9855C71.2557 12.9109 71.0531 12.1127 70.6233 11.5908C70.1996 11.0627 69.4505 10.7987 68.3759 10.7987C67.6207 10.7987 66.9974 10.9706 66.5062 11.3145C66.0211 11.6522 65.6803 12.1772 65.4838 12.8895L64.397 12.5855C64.6242 11.6829 65.0816 10.989 65.7693 10.5039C66.4571 10.0188 67.3382 9.7763 68.4128 9.7763C69.3277 9.7763 70.0952 9.95437 70.7154 10.3105C71.3417 10.6667 71.7777 11.1671 72.0233 11.8118C72.1277 12.0759 72.1983 12.3859 72.2351 12.7421C72.272 13.0921 72.2904 13.4452 72.2904 13.8013V20H71.3233V17.3842L71.6825 17.4763C71.3816 18.3728 70.8566 19.0636 70.1075 19.5487C69.3584 20.0338 68.4711 20.2763 67.4457 20.2763ZM67.5009 19.3C68.1764 19.3 68.7689 19.1802 69.2786 18.9408C69.7882 18.6952 70.1996 18.3544 70.5128 17.9184C70.8321 17.4763 71.0347 16.9574 71.1207 16.3618C71.1821 16.0302 71.2158 15.671 71.222 15.2842C71.2281 14.8974 71.2312 14.6118 71.2312 14.4276L71.6917 14.7224C71.2926 14.7715 70.8136 14.8237 70.2549 14.8789C69.7022 14.9342 69.1373 15.0017 68.5601 15.0816C67.9829 15.1614 67.461 15.2627 66.9943 15.3855C66.7057 15.4653 66.4141 15.582 66.1193 15.7355C65.8307 15.8829 65.5882 16.0886 65.3917 16.3526C65.2014 16.6167 65.1062 16.9513 65.1062 17.3566C65.1062 17.6574 65.1799 17.9583 65.3272 18.2592C65.4807 18.5601 65.7325 18.8088 66.0825 19.0052C66.4325 19.2017 66.9053 19.3 67.5009 19.3Z" fill="#4E6586"/>
<path d="M80.4938 20V14.8237C80.4938 14.1974 80.4293 13.6386 80.3004 13.1474C80.1776 12.6561 79.9872 12.2386 79.7293 11.8947C79.4776 11.5509 79.1583 11.2899 78.7714 11.1118C78.3907 10.9338 77.9394 10.8447 77.4175 10.8447C76.8771 10.8447 76.4074 10.9399 76.0083 11.1302C75.6153 11.3145 75.2899 11.5754 75.032 11.9131C74.7802 12.2509 74.5899 12.6531 74.4609 13.1197C74.3381 13.5802 74.2767 14.0838 74.2767 14.6302L73.4385 14.5289C73.4385 13.4544 73.6197 12.5702 73.982 11.8763C74.3504 11.1763 74.8447 10.6605 75.4649 10.3289C76.085 9.99121 76.782 9.82235 77.5557 9.82235C78.1021 9.82235 78.5903 9.90218 79.0201 10.0618C79.4561 10.2215 79.8337 10.4487 80.153 10.7434C80.4723 11.032 80.7364 11.3759 80.9451 11.775C81.1539 12.168 81.3074 12.6009 81.4057 13.0737C81.51 13.5465 81.5622 14.0408 81.5622 14.5566V20H80.4938ZM73.2083 20V10.0526H74.1754V12.2908H74.2767V20H73.2083Z" fill="#4E6586"/>
<path d="M86.5369 20.2763C85.5852 20.2763 84.7624 20.0645 84.0685 19.6408C83.3746 19.2109 82.8374 18.6061 82.4567 17.8263C82.076 17.0403 81.8856 16.1131 81.8856 15.0447C81.8856 13.9579 82.0729 13.0215 82.4474 12.2355C82.8281 11.4434 83.3624 10.8355 84.0501 10.4118C84.7439 9.98814 85.5667 9.7763 86.5185 9.7763C87.4825 9.7763 88.3053 9.99735 88.9869 10.4395C89.6746 10.8754 90.1966 11.5079 90.5527 12.3368C90.915 13.1658 91.0869 14.1636 91.0685 15.3302H89.9632V14.9618C89.9325 13.5987 89.6255 12.5609 89.0422 11.8487C88.4588 11.1364 87.6238 10.7802 86.5369 10.7802C85.4132 10.7802 84.5444 11.1517 83.9303 11.8947C83.3224 12.6316 83.0185 13.6754 83.0185 15.0263C83.0185 16.3649 83.3224 17.4026 83.9303 18.1395C84.5444 18.8763 85.4071 19.2447 86.5185 19.2447C87.286 19.2447 87.9553 19.0667 88.5264 18.7105C89.1036 18.3482 89.561 17.8324 89.8988 17.1631L90.8567 17.5868C90.4575 18.4465 89.8803 19.1096 89.1251 19.5763C88.3698 20.043 87.5071 20.2763 86.5369 20.2763ZM82.6132 15.3302V14.3724H90.4698V15.3302H82.6132Z" fill="#4E6586"/>
<path d="M90.1585 24.421V23.371H90.7572C91.1748 23.371 91.5217 23.2574 91.798 23.0302C92.0743 22.8092 92.2125 22.4193 92.2125 21.8605V10.0526H93.2809V21.9895C93.2809 22.8245 93.0936 23.4386 92.7191 23.8316C92.3506 24.2245 91.7612 24.421 90.9506 24.421H90.1585ZM92.2125 8.04472V6.69077H93.2809V8.04472H92.2125Z" fill="#4E6586"/>
<path d="M97.4036 20.2763C96.6361 20.2763 95.9975 20.1412 95.4878 19.871C94.9843 19.6009 94.6067 19.2447 94.3549 18.8026C94.1032 18.3544 93.9773 17.8693 93.9773 17.3474C93.9773 16.7824 94.094 16.3096 94.3273 15.9289C94.5668 15.5482 94.883 15.2412 95.276 15.0079C95.6751 14.7745 96.1141 14.5995 96.5931 14.4829C97.1396 14.3601 97.7291 14.2557 98.3615 14.1697C98.994 14.0776 99.5957 13.9978 100.167 13.9302C100.744 13.8627 101.214 13.8044 101.576 13.7552L101.189 13.9855C101.214 12.9109 101.011 12.1127 100.581 11.5908C100.158 11.0627 99.4084 10.7987 98.3339 10.7987C97.5786 10.7987 96.9554 10.9706 96.4641 11.3145C95.9791 11.6522 95.6383 12.1772 95.4418 12.8895L94.3549 12.5855C94.5821 11.6829 95.0396 10.989 95.7273 10.5039C96.415 10.0188 97.2962 9.7763 98.3707 9.7763C99.2856 9.7763 100.053 9.95437 100.673 10.3105C101.3 10.6667 101.736 11.1671 101.981 11.8118C102.086 12.0759 102.156 12.3859 102.193 12.7421C102.23 13.0921 102.248 13.4452 102.248 13.8013V20H101.281V17.3842L101.64 17.4763C101.34 18.3728 100.815 19.0636 100.065 19.5487C99.3163 20.0338 98.4291 20.2763 97.4036 20.2763ZM97.4589 19.3C98.1343 19.3 98.7269 19.1802 99.2365 18.9408C99.7462 18.6952 100.158 18.3544 100.471 17.9184C100.79 17.4763 100.993 16.9574 101.079 16.3618C101.14 16.0302 101.174 15.671 101.18 15.2842C101.186 14.8974 101.189 14.6118 101.189 14.4276L101.65 14.7224C101.251 14.7715 100.772 14.8237 100.213 14.8789C99.6602 14.9342 99.0953 15.0017 98.5181 15.0816C97.9409 15.1614 97.419 15.2627 96.9523 15.3855C96.6637 15.4653 96.372 15.582 96.0773 15.7355C95.7887 15.8829 95.5462 16.0886 95.3497 16.3526C95.1593 16.6167 95.0641 16.9513 95.0641 17.3566C95.0641 17.6574 95.1378 17.9583 95.2852 18.2592C95.4387 18.5601 95.6905 18.8088 96.0405 19.0052C96.3905 19.2017 96.8633 19.3 97.4589 19.3Z" fill="#4E6586"/>
</svg>
